# xmcd
#
# Track frame offsets: 
#        150
#        24261
#        58266
#        82506
#        110036
#        138181
#        163619
#        210309
#        235711
#        266774
#
# Disc length: 3823 seconds
#
# Revision: 0
# Processed by: cddbd v1.5.2PL0 Copyright (c) Steve Scherf et al.
# Submitted via: ExactAudioCopy v1.3
#
DISCID=780eed0a
DTITLE=The Carl Verheyen Band - Live In L.A.
DYEAR=2005
DGENRE=Blues Rock
TTITLE0=Down Like Hail
TTITLE1=Slingshot
TTITLE2=Revival Downs
TTITLE3=No Walkin' Blues
TTITLE4=Highland Shuffle
TTITLE5=Maggie's Ladder
TTITLE6=Diamonds
TTITLE7=Place for Me
TTITLE8=Rumor Mill
TTITLE9=Wasted Blues
EXTD=
EXTT0=
EXTT1=
EXTT2=
EXTT3=
EXTT4=
EXTT5=
EXTT6=
EXTT7=
EXTT8=
EXTT9=
PLAYORDER=
